<?xml version="1.0" encoding="UTF-8" standalone="no"?>
<svg
   id="Capa_1"
   enable-background="new 0 0 512.003 512.003"
   height="512"
   viewBox="0 0 512.003 512.003"
   width="512"
   version="1.1"
   sodipodi:docname="app-cocktail.svg"
   inkscape:version="1.1 (c4e8f9ed74, 2021-05-24)"
   xmlns:inkscape="http://www.inkscape.org/namespaces/inkscape"
   xmlns:sodipodi="http://sodipodi.sourceforge.net/DTD/sodipodi-0.dtd"
   xmlns="http://www.w3.org/2000/svg"
   xmlns:svg="http://www.w3.org/2000/svg">
  <defs
     id="defs29" />
  <sodipodi:namedview
     id="namedview27"
     pagecolor="#ffffff"
     bordercolor="#666666"
     borderopacity="1.0"
     inkscape:pageshadow="2"
     inkscape:pageopacity="0.0"
     inkscape:pagecheckerboard="0"
     showgrid="false"
     inkscape:zoom="1.5019531"
     inkscape:cx="255.6671"
     inkscape:cy="256"
     inkscape:window-width="1920"
     inkscape:window-height="1024"
     inkscape:window-x="2560"
     inkscape:window-y="371"
     inkscape:window-maximized="1"
     inkscape:current-layer="g20" />
  <g
     id="g24">
    <g
       id="g22">
      <g
         id="g4"
         style="fill:#ffffff">
        <path
           d="m 256.002,391.003 c -4.932,0 -9.548,-2.424 -12.348,-6.484 l -160,-232 c -3.165,-4.589 -3.524,-10.554 -0.932,-15.49 2.591,-4.935 7.706,-8.026 13.28,-8.026 h 320 c 5.574,0 10.688,3.091 13.28,8.026 2.592,4.936 2.232,10.901 -0.932,15.49 l -160,232 c -2.801,4.06 -7.417,6.484 -12.348,6.484 z m -131.435,-232 131.434,190.579 131.434,-190.579 z"
           fill="#222221"
           id="path2"
           style="fill:#ffffff" />
      </g>
      <g
         id="g8"
         style="fill:#ffffff">
        <path
           d="m 256.002,512.003 c -8.284,0 -15,-6.716 -15,-15 v -121 c 0,-8.284 6.716,-15 15,-15 8.284,0 15,6.716 15,15 v 121 c 0,8.284 -6.716,15 -15,15 z"
           fill="#222221"
           id="path6"
           style="fill:#ffffff" />
      </g>
      <g
         id="g12"
         style="fill:#ffffff">
        <path
           d="m 368.002,512.003 h -224 c -8.284,0 -15,-6.716 -15,-15 0,-8.284 6.716,-15 15,-15 h 224 c 8.284,0 15,6.716 15,15 0,8.284 -6.716,15 -15,15 z"
           fill="#222221"
           id="path10"
           style="fill:#ffffff" />
      </g>
      <g
         id="g16"
         style="fill:#ffffff">
        <path
           d="m 255.99,287.006 c -2.247,0 -4.527,-0.506 -6.676,-1.576 -7.415,-3.693 -10.433,-12.698 -6.739,-20.114 l 128,-257 c 3.692,-7.415 12.697,-10.433 20.114,-6.739 7.415,3.693 10.433,12.699 6.739,20.114 l -128,257 c -2.623,5.267 -7.927,8.315 -13.438,8.315 z"
           fill="#222221"
           id="path14"
           style="fill:#ffffff" />
      </g>
      <g
         id="g20">
        <path
           d="m 350.478,253.995 c -2.859,0 -5.748,-0.815 -8.306,-2.52 l -22.49,-14.99 c -9.527,-6.354 -21.835,-6.354 -31.358,-0.002 -19.637,13.091 -45.009,13.091 -64.643,0.001 -9.524,-6.35 -21.834,-6.35 -31.358,0 l -22.492,14.991 c -6.894,4.595 -16.206,2.731 -20.801,-4.162 -4.595,-6.893 -2.731,-16.207 4.162,-20.801 l 22.49,-14.99 c 19.632,-13.089 45.006,-13.089 64.64,0.001 9.525,6.35 21.833,6.35 31.359,0 19.634,-13.093 45.009,-13.092 64.643,0.001 l 22.487,14.988 c 6.894,4.594 8.757,13.907 4.162,20.801 -2.889,4.336 -7.647,6.682 -12.495,6.682 z"
           fill="#222221"
           id="path18"
           style="fill:#ffffff" />
      </g>
    </g>
  </g>
</svg>
