<?xml version="1.0" encoding="UTF-8" standalone="no"?>
<!-- Generator: Adobe Illustrator 17.1.0, SVG Export Plug-In . SVG Version: 6.00 Build 0)  -->

<svg
   version="1.1"
   id="Capa_1"
   x="0px"
   y="0px"
   viewBox="0 0 234.809 234.809"
   style="enable-background:new 0 0 234.809 234.809;"
   xml:space="preserve"
   sodipodi:docname="app-wall.svg"
   inkscape:version="1.1 (c4e8f9ed74, 2021-05-24)"
   xmlns:inkscape="http://www.inkscape.org/namespaces/inkscape"
   xmlns:sodipodi="http://sodipodi.sourceforge.net/DTD/sodipodi-0.dtd"
   xmlns="http://www.w3.org/2000/svg"
   xmlns:svg="http://www.w3.org/2000/svg"><defs
   id="defs37" /><sodipodi:namedview
   id="namedview35"
   pagecolor="#ffffff"
   bordercolor="#666666"
   borderopacity="1.0"
   inkscape:pageshadow="2"
   inkscape:pageopacity="0.0"
   inkscape:pagecheckerboard="0"
   showgrid="false"
   inkscape:zoom="3.2750022"
   inkscape:cx="117.25183"
   inkscape:cy="117.4045"
   inkscape:window-width="1920"
   inkscape:window-height="1024"
   inkscape:window-x="2560"
   inkscape:window-y="371"
   inkscape:window-maximized="1"
   inkscape:current-layer="Capa_1" />
<path
   d="M7.5,53.988c-4.135,0-7.5-3.364-7.5-7.5V20.571c0-4.136,3.365-7.5,7.5-7.5h94.904c4.135,0,7.5,3.364,7.5,7.5v25.917  c0,4.136-3.365,7.5-7.5,7.5H7.5z M227.309,53.988c4.135,0,7.5-3.364,7.5-7.5V20.571c0-4.136-3.365-7.5-7.5-7.5h-94.904  c-4.135,0-7.5,3.364-7.5,7.5v25.917c0,4.136,3.365,7.5,7.5,7.5H227.309z M164.856,109.904c4.135,0,7.5-3.365,7.5-7.5V76.488  c0-4.136-3.365-7.5-7.5-7.5H69.952c-4.135,0-7.5,3.364-7.5,7.5v25.917c0,4.135,3.365,7.5,7.5,7.5H164.856z M39.952,109.904  c4.136,0,7.5-3.364,7.5-7.5V76.488c0-4.136-3.364-7.5-7.5-7.5H8.048c-4.136,0-7.5,3.364-7.5,7.5v25.917c0,4.136,3.364,7.5,7.5,7.5  H39.952z M226.761,109.904c4.136,0,7.5-3.364,7.5-7.5V76.488c0-4.136-3.364-7.5-7.5-7.5h-31.904c-4.136,0-7.5,3.364-7.5,7.5v25.917  c0,4.136,3.364,7.5,7.5,7.5H226.761z M102.404,165.821c4.135,0,7.5-3.364,7.5-7.5v-25.917c0-4.135-3.365-7.5-7.5-7.5H7.5  c-4.135,0-7.5,3.365-7.5,7.5v25.917c0,4.136,3.365,7.5,7.5,7.5H102.404z M227.309,165.821c4.135,0,7.5-3.364,7.5-7.5v-25.917  c0-4.135-3.365-7.5-7.5-7.5h-94.904c-4.135,0-7.5,3.365-7.5,7.5v25.917c0,4.136,3.365,7.5,7.5,7.5H227.309z M164.856,221.738  c4.135,0,7.5-3.364,7.5-7.5v-25.917c0-4.136-3.365-7.5-7.5-7.5H69.952c-4.135,0-7.5,3.364-7.5,7.5v25.917c0,4.136,3.365,7.5,7.5,7.5  H164.856z M39.952,221.738c4.136,0,7.5-3.364,7.5-7.5v-25.917c0-4.136-3.364-7.5-7.5-7.5H8.048c-4.136,0-7.5,3.364-7.5,7.5v25.917  c0,4.136,3.364,7.5,7.5,7.5H39.952z M226.761,221.738c4.136,0,7.5-3.364,7.5-7.5v-25.917c0-4.136-3.364-7.5-7.5-7.5h-31.904  c-4.136,0-7.5,3.364-7.5,7.5v25.917c0,4.136,3.364,7.5,7.5,7.5H226.761z"
   id="path2"
   style="fill:#ffffff" />
<g
   id="g4">
</g>
<g
   id="g6">
</g>
<g
   id="g8">
</g>
<g
   id="g10">
</g>
<g
   id="g12">
</g>
<g
   id="g14">
</g>
<g
   id="g16">
</g>
<g
   id="g18">
</g>
<g
   id="g20">
</g>
<g
   id="g22">
</g>
<g
   id="g24">
</g>
<g
   id="g26">
</g>
<g
   id="g28">
</g>
<g
   id="g30">
</g>
<g
   id="g32">
</g>
</svg>
